<svg width="20.000000" height="20.000000" viewBox="0 0 20 20" fill="none" xmlns="http://www.w3.org/2000/svg" xmlns:xlink="http://www.w3.org/1999/xlink">
	<desc>
			Created with Pixso.
	</desc>
	<defs>
		<clipPath id="clip1422_13209">
			<rect id="Icon /Menu" rx="0.000000" width="19.000000" height="19.000000" transform="translate(0.500000 0.500000)" fill="white" fill-opacity="0"/>
		</clipPath>
	</defs>
	<g clip-path="url(#clip1422_13209)">
		<path id="Vector" d="M18.75 2.13L1.25 2.13C1.15 2.13 1.07 2.21 1.07 2.31L1.07 3.74C1.07 3.84 1.15 3.92 1.25 3.92L18.75 3.92C18.84 3.92 18.92 3.84 18.92 3.74L18.92 2.31C18.92 2.21 18.84 2.13 18.75 2.13ZM18.75 16.06L1.25 16.06C1.15 16.06 1.07 16.14 1.07 16.24L1.07 17.67C1.07 17.77 1.15 17.85 1.25 17.85L18.75 17.85C18.84 17.85 18.92 17.77 18.92 17.67L18.92 16.24C18.92 16.14 18.84 16.06 18.75 16.06ZM18.75 9.1L1.25 9.1C1.15 9.1 1.07 9.18 1.07 9.28L1.07 10.71C1.07 10.8 1.15 10.88 1.25 10.88L18.75 10.88C18.84 10.88 18.92 10.8 18.92 10.71L18.92 9.28C18.92 9.18 18.84 9.1 18.75 9.1Z" fill="#FFFFFF" fill-opacity="1.000000" fill-rule="nonzero"/>
	</g>
</svg>
