<svg width="16.500000" height="21.607178" viewBox="0 0 16.5 21.6072" fill="none" xmlns="http://www.w3.org/2000/svg" xmlns:xlink="http://www.w3.org/1999/xlink">
	<desc>
			Created with Pixso.
	</desc>
	<defs/>
	<path id="Vector" d="M15.71 17.08L15.12 17.08L15.12 8.74C15.12 5.27 12.56 2.41 9.23 1.93L9.23 0.98C9.23 0.43 8.79 0 8.25 0C7.7 0 7.26 0.43 7.26 0.98L7.26 1.93C3.93 2.41 1.37 5.27 1.37 8.74L1.37 17.08L0.78 17.08C0.35 17.08 0 17.44 0 17.87L0 18.66C0 18.76 0.08 18.85 0.19 18.85L5.5 18.85C5.5 20.37 6.73 21.6 8.25 21.6C9.76 21.6 11 20.37 11 18.85L16.3 18.85C16.41 18.85 16.5 18.76 16.5 18.66L16.5 17.87C16.5 17.44 16.14 17.08 15.71 17.08ZM8.25 20.03C7.59 20.03 7.07 19.5 7.07 18.85L9.42 18.85C9.42 19.5 8.9 20.03 8.25 20.03ZM3.14 17.08L3.14 8.74C3.14 7.37 3.67 6.09 4.63 5.12C5.6 4.16 6.88 3.63 8.25 3.63C9.61 3.63 10.89 4.16 11.86 5.12C12.82 6.09 13.35 7.37 13.35 8.74L13.35 17.08L3.14 17.08Z" fill="#FFFFFF" fill-opacity="1.000000" fill-rule="nonzero"/>
</svg>
