<svg width="17.448242" height="17.446045" viewBox="0 0 17.4482 17.446" fill="none" xmlns="http://www.w3.org/2000/svg" xmlns:xlink="http://www.w3.org/1999/xlink">
	<desc>
			Created with Pixso.
	</desc>
	<defs/>
	<path id="Vector" d="M17.27 8.45L0.46 0.03C0.39 -0.01 0.31 -0.01 0.24 0C0.16 0.02 0.09 0.08 0.04 0.15C0 0.22 -0.02 0.31 0 0.39L1.74 7.47C1.76 7.57 1.84 7.66 1.95 7.69L4.91 8.71L1.95 9.73C1.84 9.77 1.76 9.85 1.74 9.96L0 17.04C-0.01 17.12 -0.01 17.2 0.03 17.26C0.11 17.42 0.3 17.49 0.46 17.41L17.27 9.03C17.33 9 17.38 8.95 17.41 8.89C17.49 8.73 17.42 8.53 17.27 8.45ZM1.99 15.03L3 10.9L8.93 8.87C8.97 8.85 9.01 8.81 9.03 8.77C9.05 8.68 9.01 8.59 8.93 8.56L3 6.53L1.99 2.41L14.61 8.74L1.99 15.03Z" fill="#000000" fill-opacity="1.000000" fill-rule="nonzero"/>
</svg>
