<svg width="20.142578" height="21.321411" viewBox="0 0 20.1426 21.3214" fill="none" xmlns="http://www.w3.org/2000/svg" xmlns:xlink="http://www.w3.org/1999/xlink">
	<desc>
			Created with Pixso.
	</desc>
	<defs/>
	<path id="Vector" d="M19.35 17.4C18.84 16.2 18.11 15.11 17.19 14.19C16.27 13.27 15.18 12.54 13.99 12.04C13.98 12.03 13.97 12.03 13.96 12.02C15.62 10.82 16.71 8.85 16.71 6.64C16.71 2.97 13.74 0 10.07 0C6.4 0 3.42 2.97 3.42 6.64C3.42 8.85 4.51 10.82 6.18 12.02C6.17 12.03 6.16 12.03 6.15 12.04C4.95 12.54 3.87 13.27 2.94 14.2C2.02 15.11 1.29 16.2 0.79 17.4C0.29 18.57 0.02 19.82 0 21.1C-0.01 21.13 0 21.15 0.01 21.18C0.02 21.21 0.04 21.23 0.06 21.25C0.08 21.27 0.1 21.29 0.13 21.3C0.15 21.31 0.18 21.32 0.21 21.32L1.82 21.32C1.93 21.32 2.03 21.22 2.03 21.11C2.08 19.04 2.91 17.1 4.38 15.64C5.9 14.12 7.92 13.28 10.07 13.28C12.21 13.28 14.23 14.12 15.75 15.64C17.22 17.1 18.05 19.04 18.1 21.11C18.11 21.23 18.2 21.32 18.32 21.32L19.92 21.32C19.95 21.32 19.98 21.31 20.01 21.3C20.03 21.29 20.06 21.27 20.08 21.25C20.1 21.23 20.11 21.21 20.12 21.18C20.13 21.15 20.14 21.13 20.14 21.1C20.11 19.82 19.85 18.57 19.35 17.4ZM10.07 11.25C8.84 11.25 7.68 10.77 6.81 9.9C5.94 9.02 5.46 7.87 5.46 6.64C5.46 5.41 5.94 4.25 6.81 3.38C7.68 2.51 8.84 2.03 10.07 2.03C11.3 2.03 12.45 2.51 13.32 3.38C14.19 4.25 14.67 5.41 14.67 6.64C14.67 7.87 14.19 9.02 13.32 9.9C12.45 10.77 11.3 11.25 10.07 11.25Z" fill="#FFFFFF" fill-opacity="1.000000" fill-rule="nonzero"/>
</svg>
